<?xml version="1.0" encoding="UTF-8"?>
<svg id="Layer_1" data-name="Layer 1" xmlns="http://www.w3.org/2000/svg" viewBox="0 0 815.3033721 411.6749346">
  <defs>
    <style>
      .cls-1 {
        fill: #f5b23d;
      }

      .cls-2 {
        font-family: Poppins-Medium, Poppins;
        font-size: 77.5674515px;
        font-weight: 500;
      }

      .cls-3 {
        fill: #fefdfd;
      }

      .cls-4 {
        fill: #007173;
      }
    </style>
  </defs>
  <g>
    <path class="cls-1" d="M180.0881839,67.3583873c5.9080015,5.9987645,13.8341542,16.852786,17.7275337,24.5814879.2730887.5421051,1.6045442,2.8829819,1.2639839,3.2735003-9.6390066,2.9655463-18.9403642,7.0075124-28.5399719,10.1402647-7.3129373.9662187-8.4877607-3.3115267-12.1428397-7.769881-22.4891057-27.4315278-65.2875945-31.4850409-93.6531917-10.8643572-30.1249592,21.8996713-36.3848175,66.0745158-17.5636673,97.0055442,23.1829825,38.0993449,77.4257863,43.1030313,108.3350467,11.5517911,2.9512242-3.0125206,6.9673618-10.8681813,11.1426613-11.7276538,5.9827716-1.231535,13.3894528,3.4562349,19.0669309,5.1004488,1.6303127.423927,13.4836391,4.5093102,13.697473,5.2116739.127603.4305954-.1468377.7549259-.2613445,1.121345-1.2976009,4.1522921-6.658748,11.6573946-9.3977021,15.3138668-35.4966059,47.3875606-107.3116051,54.1529997-152.2718561,16.5461776-.3834498-.3207351-.5386733-.913748-.9324904-1.2466793-3.432771-2.9020495-6.0152141-4.921674-8.7444753-8.3244975-1.6000699-1.9949558-3.8183099-3.8903855-5.3628368-5.8806367C-11.5987236,167.514321-6.7918172,101.1010292,36.0104974,64.1600915c40.2357851-34.7258703,99.1822597-33.7971701,139.6341473-.1666112.9387982.7804904,4.1100791,3.0263241,4.4435392,3.364907Z"/>
    <path class="cls-1" d="M476.904025,183.8297372c.2975664,4.9651255,1.7016903,10.0208429,3.8571504,14.4829356,5.4830872,11.3507285,17.3938209,19.2485192,29.7805259,21.0632768,9.8475913,1.4427559,14.7625615-1.3789825,19.4538854,9.5997161,2.6179789,6.1266292,4.6051921,12.7769693,7.1943712,18.9437057-.1243509.6141575-7.7431651,1.8122705-8.9421479,1.9625335-39.6318025,4.9668724-74.5900322-17.1361499-83.6278871-56.4661918-3.1043234-13.5090871-2.1512314-28.651349,1.4706252-41.6823777.7914129-2.8474138.8308264-5.3610698,2.1304215-7.5765397,1.8599368-3.1707062,3.3685937-7.0165468,5.1510947-10.570481.6941993-1.3840882,1.4013513-1.8044569,2.0566144-3.0090457,1.0623355-1.9529214,2.1712111-3.6174576,3.8996557-5.5430351,12.0228077-13.3940361,27.341355-22.4999558,45.4099468-25.0450213,43.0672754-6.0662745,78.675576,19.182087,85.0061743,61.974184,1.0841836,7.3286106.8633046,14.4703193.8317855,21.8663407h-113.672216ZM553.532899,158.7710059c-4.7007746-22.8295637-24.9839237-34.7633876-47.6502396-29.3101537-14.2470313,3.4276587-24.6964139,15.053831-27.5259543,29.3101537h75.1761939Z"/>
    <path class="cls-1" d="M242.8409477,102.1164829c2.3250732.4735895,5.9876604,4.4810776,5.9934157,7.0807049.9703016,25.6320375-1.2934711,52.2127453-.0160641,77.7344482.9184909,18.3508076,9.5115138,33.5037588,29.9724893,32.1227583,19.8703109-1.341134,29.683376-21.0849481,30.7070117-39.0227882,1.2656816-22.179368-.49259-45.8797223.0034414-68.3084075.0166351-.7521756-.3047733-1.5034061-.2644462-2.1139761.1508763-2.2843348,3.8767444-7.4927396,6.238156-7.4927396h28.1456765v145.4495926c0,.9327999-1.5557458.4355118-1.9720099-.2113981l-32.1659719.0298131v-15.6163108c-1.4298032,1.0609891-2.3687028,3.1050736-3.4900314,4.3181246-15.2870659,16.5375161-44.123089,18.1396107-63.2142391,8.0923336-20.5529409-10.8165874-27.7825526-32.3296957-28.0634915-54.3403677-.3731095-29.2319491.2383974-58.4922233-.019613-87.7217873h28.1456765Z"/>
    <path class="cls-1" d="M397.7329608,118.8223038c1.3661078-.7298887,1.6999457-2.4925289,2.536204-3.4569158,11.7172487-13.5125247,28.0919121-17.8504147,45.7692747-13.7975263,3.5713305.8187988,9.5548432,2.5252147,7.7029934,7.3489148-2.034745,5.3001054-7.1925203,11.54392-9.5851694,16.9248676-1.0168907,2.6528668-2.5457965,4.8031134-3.9251793,7.0420807-.3765769.6112469-.2783466,1.2217651-.9086639,1.9259837-1.6214607,1.8115682-2.9562512.726455-4.7127069.7032895-25.1267871-.3313921-34.3972509,16.2079572-36.8917874,39.0408691l.0150347,72.8306236h-34.1379818V102.1164829h34.1379818v16.7058209Z"/>
    <path class="cls-1" d="M569.4318295,210.0758413c24.4587177-.3592655,26.3588723,36.9980555,1.7276136,38.7744671-26.2587154,1.8937841-27.5710186-38.3948625-1.7276136-38.7744671Z"/>
  </g>
  <path class="cls-3" d="M465.2986011,241.9635495c1.2386509,3.5136177-.4891984,9.3707967,4.7840034,11.9600085-1.611285,12.2749693-21.127919,2.2262862-14.3520102-9.5680068,2.6614912-1.4196915,6.6263395-3.0389837,9.5680068-2.3920017Z"/>
  <g>
    <path class="cls-4" d="M744.6630068,201.546733c15.2261718-31.9463181,26.0871217-74.2628796,10.6696407-108.0818599-23.8459395-52.3072064-98.185674-67.4599058-140.8753576-29.7756407-4.1952558,3.7033569-20.0712523,22.2953083-21.9086504,21.8352536-34.5639632-47.025806-85.7915207-63.0182881-140.5261946-39.802531-5.815511,2.4666538-11.8029381,8.5701657-15.9884909,10.0506669-2.1355713.7553879-5.7595205-1.4680869-6.3838224-.8062332-.6221254.6595462-.0404263,4.5172086-1.441377,6.2435256-3.1631612,3.897795-9.522224,6.2984804-13.3601533,9.7437474-2.15035,1.9303456-2.0639536,10.0185729-11.6540544,10.1951827,6.2828593-18.2703959,20.9971592-40.3379488,36.1446811-52.4890416,41.831721-33.5567184,108.9895886-33.0655379,147.577526,5.5609364,3.9999865,4.0039812,3.704649,11.7726559,12.1991776,14.0734961,102.0444749-123.8410751,278.8229909,14.3338179,193.7059251,146.6853819,4.2528003-11.3939634,7.206517-23.4289664,10.9335225-35.0135168-6.6040852-1.6464417-4.4103991,4.602331-6.4155916,7.4586627-3.9630661,5.645259-5.0822143-3.0831624-7.6411798-5.3592434-11.0985104-9.8716096-16.7523365-1.6468901-27.5148013-4.3130891-.9953082,12.7437297-6.4034873,28.0042232-12.1897707,39.3714495-1.3337538,2.620176-4.9688367,3.77704-5.331029,4.422853ZM661.4795388,15.4784491h31.7410602c26.8372047,0,63.1744571,22.4153652,80.0021983,42.5608683,13.0516917,15.6249665,19.3248234,35.3982299,27.2606809,53.7788952,9.2487388-.2695098-12.8764374-50.8292521-15.2023661-54.8689199-18.9587913-32.9275864-65.8845445-52.1207679-102.7743595-47.808486l-21.0272139,6.3376424Z"/>
    <path class="cls-4" d="M744.6630068,201.546733c.3621923-.645813,3.9972752-1.8026769,5.331029-4.422853,5.7862834-11.3672262,11.1944626-26.6277197,12.1897707-39.3714495,10.7624648,2.6661989,16.4162909-5.5585205,27.5148013,4.3130891,2.5589655,2.276081,3.6781137,11.0045024,7.6411798,5.3592434,2.0051926-2.8563317-.1884935-9.1051044,6.4155916-7.4586627-3.7270055,11.5845503-6.6807222,23.6195534-10.9335225,35.0135168-20.9541686,56.1397225-99.6817768,119.8178705-143.4384101,161.9318189-18.1965815,17.5134565-35.9616874,35.6587884-52.5113316,54.7634986l-77.6653858-98.4806188c13.8996619-1.1595627,10.3535503,5.2532783,14.5960326,8.9170637,1.973147,1.7039993,8.0436815,2.6974617,11.5289828,5.4439188,8.5766021,6.7584603,42.0352916,41.8783438,48.9308536,40.1252668,15.5969844-14.3189468,32.1286038-27.9424888,47.5461803-42.4225617,40.5265482-38.0622316,76.3990313-76.5398905,102.8542282-123.7112704Z"/>
  </g>
  <text class="cls-2" transform="translate(298.9588149 317.1528817)"><tspan x="0" y="0">Basket</tspan></text>
</svg>